<mxfile host="drawio-plugin" modified="2024-03-21T09:39:04.307Z" agent="5.0 (Windows NT 10.0; Win64; x64) AppleWebKit/537.36 (KHTML, like Gecko) Chrome/111.0.0.0 Safari/537.36" etag="pjIfnBTrjDyjy5857DDs" version="20.5.3" type="embed"><diagram id="23iRSUPoRavnBvh4doch" name="Page-1"><mxGraphModel dx="894" dy="700" grid="1" gridSize="10" guides="1" tooltips="1" connect="1" arrows="1" fold="1" page="1" pageScale="1" pageWidth="827" pageHeight="1169" math="0" shadow="0"><root><mxCell id="0"/><mxCell id="1" parent="0"/><mxCell id="7" value="&lt;p style=&quot;margin:0px;margin-top:4px;text-align:center;&quot;&gt;&lt;i&gt;&amp;lt;&amp;lt;Record&amp;gt;&amp;gt;&lt;/i&gt;&lt;br&gt;&lt;b&gt;GameStateMemento&lt;/b&gt;&lt;/p&gt;&lt;hr size=&quot;1&quot;&gt;&amp;nbsp;+ date: LocalDateTime&lt;br&gt;&lt;p style=&quot;margin:0px;margin-left:4px;&quot;&gt;+ level: int&lt;br&gt;+ score: int&lt;/p&gt;&lt;hr size=&quot;1&quot;&gt;&lt;p style=&quot;margin:0px;margin-left:4px;&quot;&gt;+ GameStateMemento(level: int, score: int)&lt;br&gt;&lt;br&gt;&lt;/p&gt;" style="verticalAlign=top;align=left;overflow=fill;fontSize=12;fontFamily=Helvetica;html=1;" parent="1" vertex="1"><mxGeometry x="480" y="400" width="240" height="120" as="geometry"/></mxCell><mxCell id="8" value="Game" style="swimlane;fontStyle=1;align=center;verticalAlign=top;childLayout=stackLayout;horizontal=1;startSize=26;horizontalStack=0;resizeParent=1;resizeParentMax=0;resizeLast=0;collapsible=1;marginBottom=0;" parent="1" vertex="1"><mxGeometry x="80" y="320" width="240" height="190" as="geometry"/></mxCell><mxCell id="9" value="- level: int&#10;- score: int" style="text;strokeColor=none;fillColor=none;align=left;verticalAlign=top;spacingLeft=4;spacingRight=4;overflow=hidden;rotatable=0;points=[[0,0.5],[1,0.5]];portConstraint=eastwest;" parent="8" vertex="1"><mxGeometry y="26" width="240" height="44" as="geometry"/></mxCell><mxCell id="10" value="" style="line;strokeWidth=1;fillColor=none;align=left;verticalAlign=middle;spacingTop=-1;spacingLeft=3;spacingRight=3;rotatable=0;labelPosition=right;points=[];portConstraint=eastwest;strokeColor=inherit;" parent="8" vertex="1"><mxGeometry y="70" width="240" height="8" as="geometry"/></mxCell><mxCell id="11" value="+ Game(): Game&#10;&#10;+ increaseLevel()&#10;+ increaseScore(value: int)&#10;&#10;+ save(): GameStateMemento&#10;+ load(state: GameStateMemento)" style="text;strokeColor=none;fillColor=none;align=left;verticalAlign=top;spacingLeft=4;spacingRight=4;overflow=hidden;rotatable=0;points=[[0,0.5],[1,0.5]];portConstraint=eastwest;" parent="8" vertex="1"><mxGeometry y="78" width="240" height="112" as="geometry"/></mxCell><mxCell id="12" value="GameCaretaker" style="swimlane;fontStyle=1;align=center;verticalAlign=top;childLayout=stackLayout;horizontal=1;startSize=26;horizontalStack=0;resizeParent=1;resizeParentMax=0;resizeLast=0;collapsible=1;marginBottom=0;" parent="1" vertex="1"><mxGeometry x="440" y="120" width="280" height="130" as="geometry"/></mxCell><mxCell id="13" value="- saves: List&lt;GameStateMemento" style="text;strokeColor=none;fillColor=none;align=left;verticalAlign=top;spacingLeft=4;spacingRight=4;overflow=hidden;rotatable=0;points=[[0,0.5],[1,0.5]];portConstraint=eastwest;" parent="12" vertex="1"><mxGeometry y="26" width="280" height="26" as="geometry"/></mxCell><mxCell id="14" value="" style="line;strokeWidth=1;fillColor=none;align=left;verticalAlign=middle;spacingTop=-1;spacingLeft=3;spacingRight=3;rotatable=0;labelPosition=right;points=[];portConstraint=eastwest;strokeColor=inherit;" parent="12" vertex="1"><mxGeometry y="52" width="280" height="8" as="geometry"/></mxCell><mxCell id="15" value="+ GameCaretaker(): GameCaretaker&#10;+ addSave(save: GameStateMemento)&#10;+ getSaveByIndex(inex: int): GameStateMemento&#10;+ showSaves()" style="text;strokeColor=none;fillColor=none;align=left;verticalAlign=top;spacingLeft=4;spacingRight=4;overflow=hidden;rotatable=0;points=[[0,0.5],[1,0.5]];portConstraint=eastwest;" parent="12" vertex="1"><mxGeometry y="60" width="280" height="70" as="geometry"/></mxCell><mxCell id="16" value="Actor" style="shape=umlActor;verticalLabelPosition=bottom;verticalAlign=top;html=1;outlineConnect=0;" parent="1" vertex="1"><mxGeometry x="160" y="80" width="30" height="60" as="geometry"/></mxCell><mxCell id="17" value="Use" style="endArrow=open;endSize=12;dashed=1;html=1;rounded=0;exitX=1;exitY=0.3333333333333333;exitDx=0;exitDy=0;exitPerimeter=0;entryX=0;entryY=0.5;entryDx=0;entryDy=0;edgeStyle=orthogonalEdgeStyle;" parent="1" source="16" target="13" edge="1"><mxGeometry width="160" relative="1" as="geometry"><mxPoint x="510" y="270" as="sourcePoint"/><mxPoint x="670" y="270" as="targetPoint"/></mxGeometry></mxCell><mxCell id="18" value="Use" style="endArrow=open;endSize=12;dashed=1;html=1;rounded=0;exitX=0;exitY=0.3333333333333333;exitDx=0;exitDy=0;exitPerimeter=0;entryX=0.5;entryY=0;entryDx=0;entryDy=0;edgeStyle=orthogonalEdgeStyle;" parent="1" source="16" target="8" edge="1"><mxGeometry width="160" relative="1" as="geometry"><mxPoint x="300" y="320" as="sourcePoint"/><mxPoint x="460" y="320" as="targetPoint"/><Array as="points"><mxPoint x="120" y="100"/><mxPoint x="120" y="240"/><mxPoint x="200" y="240"/></Array></mxGeometry></mxCell><mxCell id="19" value="0..*" style="endArrow=open;html=1;endSize=12;startArrow=diamondThin;startSize=14;startFill=0;edgeStyle=orthogonalEdgeStyle;align=left;verticalAlign=bottom;rounded=0;exitX=0.477;exitY=1.007;exitDx=0;exitDy=0;exitPerimeter=0;entryX=0.5;entryY=0;entryDx=0;entryDy=0;" parent="1" source="15" target="7" edge="1"><mxGeometry x="-0.8091" y="-24" relative="1" as="geometry"><mxPoint x="430" y="370" as="sourcePoint"/><mxPoint x="590" y="370" as="targetPoint"/><mxPoint as="offset"/></mxGeometry></mxCell></root></mxGraphModel></diagram></mxfile>